<?xml version="1.0" encoding="UTF-8"?>
<svg width="233px" height="80px" viewBox="0 0 233 80" version="1.1" xmlns="http://www.w3.org/2000/svg" xmlns:xlink="http://www.w3.org/1999/xlink">
    <!-- Generator: Sketch 61.2 (89653) - https://sketch.com -->
    <title>标签系统-黑色字体</title>
    <desc>Created with Sketch.</desc>
    <defs>
        <linearGradient x1="65.1593492%" y1="77.9631462%" x2="28.8193387%" y2="9.59326364%" id="linearGradient-1">
            <stop stop-color="#32A3DD" offset="5.45%"></stop>
            <stop stop-color="#104B9F" offset="82.23%"></stop>
        </linearGradient>
        <linearGradient x1="70.5299143%" y1="66.1700468%" x2="27.8719122%" y2="32.0638918%" id="linearGradient-2">
            <stop stop-color="#32A3DD" offset="5.45%"></stop>
            <stop stop-color="#104B9F" offset="82.23%"></stop>
        </linearGradient>
        <linearGradient x1="25.4061215%" y1="56.2728849%" x2="113.496223%" y2="33.798511%" id="linearGradient-3">
            <stop stop-color="#32A3DD" offset="18.67%"></stop>
            <stop stop-color="#104B9F" offset="94.21%"></stop>
        </linearGradient>
        <linearGradient x1="17.8767068%" y1="68.0224214%" x2="82.1226487%" y2="31.9742482%" id="linearGradient-4">
            <stop stop-color="#32A3DD" offset="5.45%"></stop>
            <stop stop-color="#104B9F" offset="82.23%"></stop>
        </linearGradient>
    </defs>
    <g id="负面贴" stroke="none" stroke-width="1" fill="none" fill-rule="evenodd">
        <g id="标签系统" fill-rule="nonzero">
            <g id="编组">
                <path d="M46.0213589,0.916266832 L35.481814,8.51385234 C24.2290667,16.6265284 21.1286179,32.1089615 28.3398855,44.1145334 L49.0227519,78.5364495 L61.3948305,69.6214208 C72.6475778,61.5087448 75.7480266,46.0263117 68.536759,34.0207398 L48.5770005,0.807305371 M44.7138214,12.3275035 C42.514781,13.0407058 40.1473456,11.8322241 39.4341433,9.63318372 C38.720941,7.43414332 39.9294227,5.06670794 42.1284631,4.35350565 C44.3275035,3.64030336 46.6949389,4.84878502 47.4081412,7.04782541 C48.1213434,9.24686581 46.9128618,11.6143012 44.7138214,12.3275035 Z" id="形状" fill="url(#linearGradient-1)"></path>
                <path d="M45.3081566,1.74833617 L34.7686117,9.34592168 C23.5158644,17.4585977 20.4154156,32.9410308 27.6266832,44.9466027 L48.3095496,79.3685188 L60.6816282,70.4534902 C71.9343755,62.3408141 75.0348243,46.8583811 67.8235567,34.8528092 L47.8637982,1.63937471 M44.7138214,12.3275035 C42.514781,13.0407058 40.1473456,11.8322241 39.4341433,9.63318372 C38.720941,7.43414332 39.9294227,5.06670794 42.1284631,4.35350565 C44.3275035,3.64030336 46.6949389,4.84878502 47.4081412,7.04782541 C48.1213434,9.24686581 46.9128618,11.6143012 44.7138214,12.3275035 Z" id="形状" fill="url(#linearGradient-2)"></path>
                <g opacity="0.42" transform="translate(35.622969, 5.633803)" fill="#264687" id="路径">
                    <g transform="translate(0.037146, 1.027705)">
                        <path d="M4.18015787,58.6212661 C7.89475313,53.8963009 10.4603003,47.8836093 11.6786875,41.1973379 L16.4729918,2.06036217 L15.3338492,0.168394985 L12.4315121,4.22968581 C12.4315121,4.22968581 11.6390652,17.859774 10.8664293,21.3762575 L2.38724656,39.8997059 L0.782541402,52.5887633"></path>
                    </g>
                </g>
                <path d="M37.5421761,0.163442192 C23.6743538,-0.629004798 11.0843523,11.1883609 8.57823866,27.3245628 L1.39668782,73.5737502 L16.6413868,74.4454419 C30.5092091,75.2378889 43.0992106,63.4205231 45.6053243,47.2843213 L52.7868751,1.03513388 L37.5421761,0.163442192 Z M43.8916576,12.5256152 C41.5737502,12.5256152 39.7015942,10.6534592 39.7015942,8.33555177 C39.7015942,6.01764433 41.5737502,4.14548831 43.8916576,4.14548831 C46.2095651,4.14548831 48.0817211,6.01764433 48.0817211,8.33555177 C48.0817211,10.6534592 46.2095651,12.5256152 43.8916576,12.5256152 Z" id="形状" fill="url(#linearGradient-3)"></path>
                <path d="M36.7695403,0.163442192 C22.901718,-0.629004798 10.3117165,11.1883609 7.80560285,27.3245628 L0.624052004,73.5737502 L15.868751,74.4454419 C29.7365733,75.2378889 42.3265748,63.4205231 44.8326884,47.2843213 L52.0142393,1.03513388 L36.7695403,0.163442192 Z M43.1190218,12.5256152 C40.8011144,12.5256152 38.9289584,10.6534592 38.9289584,8.33555177 C38.9289584,6.01764433 40.8011144,4.14548831 43.1190218,4.14548831 C45.4369293,4.14548831 47.3090853,6.01764433 47.3090853,8.33555177 C47.3090853,10.6534592 45.4369293,12.5256152 43.1190218,12.5256152 Z" id="形状" fill="url(#linearGradient-4)"></path>
            </g>
            <g id="编组" transform="translate(101.408451, 16.901408)" fill="#040000">
                <path d="M0.00990558737,7.88484755 L0.00990558737,1.62451633 C0.00990558737,0.960841975 0.465562606,0.435845844 1.0202755,0.435845844 L38.4733013,0.435845844 C39.0379198,0.435845844 39.4836713,0.970747562 39.4836713,1.62451633 L39.4836713,7.88484755 C39.4836713,8.5485219 39.0280142,9.07351803 38.4733013,9.07351803 L25.397926,9.07351803 C25.061136,9.07351803 24.7936852,9.39049683 24.7936852,9.78672032 L24.7936852,43.8124129 C24.7936852,44.4760873 24.3380282,45.0010834 23.7833153,45.0010834 L15.7300727,45.0010834 C15.1654543,45.0010834 14.7197028,44.4661817 14.7197028,43.8124129 L14.7197028,9.78672032 C14.7197028,9.39049683 14.4423464,9.07351803 14.115462,9.07351803 L1.04008667,9.07351803 C0.455657019,9.07351803 0.00990558737,8.53861631 0.00990558737,7.88484755 Z" id="路径"></path>
                <path d="M96.9459836,43.8520353 L96.9459836,37.7997214 C96.9459836,37.1360471 97.4016406,36.6110509 97.9563535,36.6110509 L118.649126,36.6110509 C120.045813,36.6110509 120.74911,35.9671877 120.74911,34.6695558 L120.74911,29.9544962 C120.74911,28.7460145 120.16468,28.0427178 118.995821,27.8247949 L105.345922,25.3087757 C99.7492648,24.2785946 96.9459836,20.8116391 96.9459836,14.907909 L96.9459836,11.2923696 C96.9459836,4.05138523 100.868596,0.435845844 108.703916,0.435845844 C108.703916,0.435845844 124.463705,0.435845844 128.396223,0.435845844 C129.030181,0.435845844 129.416499,0.911314038 129.416499,1.62451633 L129.416499,7.63720786 C129.416499,8.30088222 128.960842,8.82587835 128.406129,8.82587835 L109.11995,8.82587835 C107.723263,8.82587835 107.019966,9.46974153 107.019966,10.7673735 L107.019966,14.9673425 C107.019966,16.1758242 107.604396,16.8890265 108.773255,17.0970438 L122.423154,19.613063 C128.019811,20.6432441 130.823092,24.1101997 130.823092,30.0139297 L130.823092,34.1445597 C130.823092,41.385544 126.90048,45.0012119 119.06516,45.0012119 C119.06516,45.0012119 100.977558,45.0012119 97.9662591,45.0012119 C97.3818294,45.010989 96.9459836,44.4463705 96.9459836,43.8520353 Z" id="路径"></path>
                <path d="M46.1600371,43.5350565 L46.1600371,1.90187278 C46.1600371,1.08961461 46.7246556,0.425940257 47.4180467,0.425940257 L55.669401,0.425940257 C56.1448692,0.425940257 56.5708095,0.733013465 56.7887324,1.22829283 L67.8829902,26.8738585 C67.9721405,27.0818759 68.2197802,27.0818759 68.3089305,26.8738585 L79.4031884,1.22829283 C79.6211113,0.733013465 80.0470515,0.425940257 80.5225197,0.425940257 L88.773874,0.425940257 C89.4672651,0.425940257 90.0318836,1.08961461 90.0318836,1.90187278 L90.0318836,43.5350565 C90.0318836,44.3473147 89.4672651,45.010989 88.773874,45.010989 L82.6720322,45.010989 C81.9786411,45.010989 81.4140226,44.3473147 81.4140226,43.5350565 L81.4140226,18.6324098 C81.4140226,18.1767528 80.8989321,18.028169 80.7206315,18.4342981 L72.0829593,38.3841511 C71.8650364,38.8794304 71.4390961,39.1865036 70.9636279,39.1865036 L65.2084817,39.1865036 C64.7330135,39.1865036 64.3070732,38.8794304 64.0891503,38.3841511 L55.4514781,18.4342981 C55.2731775,18.028169 54.758087,18.1767528 54.758087,18.6324098 L54.758087,43.5350565 C54.758087,44.3473147 54.1934685,45.010989 53.5000774,45.010989 L47.3982356,45.010989 C46.7246556,45.010989 46.1600371,44.3473147 46.1600371,43.5350565 Z" id="路径"></path>
            </g>
        </g>
    </g>
</svg>